<?xml version="1.0" standalone="no"?>
<!DOCTYPE svg PUBLIC "-//W3C//DTD SVG 20010904//EN"
 "http://www.w3.org/TR/2001/REC-SVG-20010904/DTD/svg10.dtd">
<svg version="1.0" xmlns="http://www.w3.org/2000/svg"
 width="1366.000000pt" height="768.000000pt" viewBox="0 0 1366.000000 768.000000"
 preserveAspectRatio="xMidYMid meet">

<g transform="translate(0.000000,768.000000) scale(0.100000,-0.100000)"
fill="#000000" stroke="none">
<path d="M1721 5853 c-1 -13 -34 -27 -67 -28 -12 0 -28 -6 -35 -12 -8 -6 -22
-9 -31 -8 -10 2 -19 -6 -22 -21 -4 -13 -11 -24 -17 -24 -8 0 -8 4 0 14 9 10 7
17 -6 27 -16 13 -17 12 -4 -3 9 -12 10 -18 2 -18 -6 0 -11 -7 -11 -15 0 -20
-17 -19 -29 2 -5 10 -13 14 -18 9 -4 -4 2 -15 15 -23 12 -9 22 -21 22 -29 0
-8 6 -11 14 -8 8 3 13 11 10 19 -3 7 4 15 15 18 14 3 18 1 14 -9 -7 -18 6 -18
26 0 9 7 52 27 96 44 237 89 444 44 625 -138 97 -97 152 -185 254 -410 8 -19
16 -30 16 -24 0 33 -117 271 -156 315 -8 8 -14 21 -14 27 0 6 -39 51 -87 100
-94 95 -177 146 -280 173 -29 7 -53 16 -53 19 0 11 -214 12 -242 1 -19 -7 -28
-7 -32 2 -3 9 -5 9 -5 0z"/>
<path d="M9268 5854 c-2 -1 -15 -5 -28 -8 -14 -3 -36 -8 -50 -12 -14 -3 -33
-7 -42 -7 -10 -1 -18 -5 -18 -10 0 -5 -7 -7 -15 -3 -8 3 -15 1 -15 -5 0 -5 -6
-9 -12 -8 -7 1 -22 1 -33 0 -17 -1 -18 -3 -5 -11 13 -8 12 -10 -2 -10 -10 0
-18 -7 -18 -16 0 -15 -2 -15 -25 0 -14 9 -25 12 -25 7 0 -6 9 -15 21 -21 12
-7 18 -18 15 -26 -3 -8 0 -14 8 -14 20 0 27 12 15 27 -9 10 -7 13 7 13 16 0
17 2 4 10 -11 7 -12 10 -2 10 8 0 16 -9 19 -20 6 -22 18 -26 28 -10 7 12 70
41 145 66 42 15 84 19 180 19 122 0 127 -1 200 -35 80 -37 160 -96 224 -164
44 -47 140 -190 156 -231 6 -15 13 -25 16 -22 3 3 -7 30 -22 59 -110 205 -251
339 -413 389 -36 10 -69 23 -75 28 -10 8 -231 13 -238 5z"/>
<path d="M9010 5800 c-12 -7 -12 -11 -2 -20 6 -5 10 -7 7 -4 -3 4 0 13 6 21
13 15 10 16 -11 3z"/>
<path d="M1500 5791 c0 -6 5 -13 10 -16 6 -3 10 1 10 9 0 9 -4 16 -10 16 -5 0
-10 -4 -10 -9z"/>
<path d="M1445 5761 c-3 -5 -1 -13 5 -16 6 -4 8 -15 5 -25 -4 -13 -1 -18 9
-16 26 4 30 15 16 41 -14 26 -25 31 -35 16z"/>
<path d="M8945 5761 c-3 -5 -1 -13 5 -16 6 -4 8 -15 5 -26 -7 -21 -5 -22 19
-13 20 8 21 31 2 50 -17 16 -23 17 -31 5z"/>
<path d="M1400 5735 c-7 -8 -9 -15 -5 -15 4 0 1 -8 -6 -17 -13 -17 -13 -17 11
-2 25 16 40 49 22 49 -5 0 -15 -7 -22 -15z"/>
<path d="M8900 5735 c-7 -8 -9 -15 -5 -15 4 0 1 -8 -6 -17 -12 -14 -10 -14 14
1 15 10 27 25 27 32 0 18 -14 18 -30 -1z"/>
<path d="M1335 5700 c-16 -11 -25 -20 -19 -20 11 0 64 39 54 40 -3 0 -18 -9
-35 -20z"/>
<path d="M8845 5707 c-15 -12 -16 -15 -4 -22 8 -5 11 -5 7 0 -4 4 0 14 10 21
23 18 11 18 -13 1z"/>
<path d="M1390 5680 c-9 -6 -10 -10 -3 -10 6 0 15 5 18 10 8 12 4 12 -15 0z"/>
<path d="M3828 5493 c-12 -16 -96 -94 -153 -142 -11 -10 -37 -27 -57 -40 -21
-12 -38 -29 -38 -36 0 -8 13 -2 32 16 18 16 37 29 43 29 6 0 18 9 28 20 10 12
23 17 34 14 14 -4 15 -4 4 4 -9 7 -10 12 -2 16 6 4 11 4 11 1 0 -4 15 9 33 27
67 72 97 108 88 108 -6 0 -16 -8 -23 -17z"/>
<path d="M11279 5447 c-85 -80 -122 -111 -164 -137 -19 -12 -35 -23 -35 -26 0
-7 35 10 49 24 7 7 21 10 29 7 9 -3 13 -3 10 1 -10 9 52 65 63 58 5 -3 9 3 9
12 0 10 3 14 6 11 4 -4 23 12 43 35 20 23 44 50 54 60 9 10 14 18 10 18 -5 0
-38 -28 -74 -63z"/>
<path d="M10550 5435 c0 -22 104 -138 114 -127 3 3 6 1 6 -5 0 -6 8 -14 18
-17 9 -4 -9 17 -41 46 -32 29 -67 67 -77 83 -11 17 -20 26 -20 20z"/>
<path d="M3079 5395 c18 -33 51 -71 51 -58 0 6 -14 27 -31 45 -17 18 -26 24
-20 13z"/>
<path d="M5152 5365 c-33 -15 -35 -15 -52 -15 -5 0 -10 -4 -10 -10 0 -8 97 23
109 36 9 8 -15 3 -47 -11z"/>
<path d="M12648 5365 c-3 -3 -16 -8 -28 -10 -24 -5 -36 -12 -29 -19 2 -2 24 4
49 15 25 10 38 18 29 18 -9 1 -18 -1 -21 -4z"/>
<path d="M10035 5325 c9 -22 21 -44 26 -50 6 -5 3 8 -6 30 -9 22 -21 45 -26
50 -6 6 -3 -8 6 -30z"/>
<path d="M5015 5309 c-22 -10 -29 -16 -16 -13 37 10 88 33 71 33 -8 0 -33 -9
-55 -20z"/>
<path d="M12515 5310 c-22 -11 -29 -17 -16 -14 38 10 88 33 71 33 -8 0 -33 -8
-55 -19z"/>
<path d="M3166 5306 c3 -9 10 -16 16 -16 5 0 7 -4 4 -8 -2 -4 4 -8 15 -8 25 0
24 1 -11 26 -22 16 -28 17 -24 6z"/>
<path d="M12428 5279 c-21 -11 -38 -21 -38 -24 0 -8 59 17 71 31 14 17 14 17
-33 -7z"/>
<path d="M4875 5255 c-27 -13 -52 -21 -55 -20 -3 2 -12 -4 -20 -13 -13 -14
-13 -15 0 -10 137 56 136 56 129 62 -2 1 -26 -7 -54 -19z"/>
<path d="M3237 5259 c7 -7 15 -10 18 -7 3 3 -2 9 -12 12 -14 6 -15 5 -6 -5z"/>
<path d="M3525 5260 c-16 -7 -17 -9 -3 -9 9 -1 20 4 23 9 7 11 7 11 -20 0z"/>
<path d="M10737 5259 c7 -7 15 -10 18 -7 3 3 -2 9 -12 12 -14 6 -15 5 -6 -5z"/>
<path d="M11020 5260 c-9 -6 -10 -10 -3 -10 6 0 15 5 18 10 8 12 4 12 -15 0z"/>
<path d="M3280 5240 c8 -5 24 -10 34 -10 26 0 18 6 -19 14 -22 5 -26 4 -15 -4z"/>
<path d="M3465 5240 c-13 -6 -15 -9 -5 -9 8 0 22 4 30 9 18 12 2 12 -25 0z"/>
<path d="M10790 5236 c14 -8 28 -12 33 -9 11 7 7 9 -28 17 l-30 6 25 -14z"/>
<path d="M10960 5243 c-14 -3 -29 -8 -34 -13 -5 -5 8 -5 29 0 20 4 39 11 42
14 7 6 4 6 -37 -1z"/>
<path d="M12340 5240 c-18 -12 -2 -12 25 0 13 6 15 9 5 9 -8 0 -22 -4 -30 -9z"/>
<path d="M3415 5230 c-19 -8 -19 -9 3 -9 12 -1 22 4 22 9 0 6 -1 10 -2 9 -2 0
-12 -4 -23 -9z"/>
<path d="M12300 5225 c-11 -13 -10 -14 4 -9 9 3 16 10 16 15 0 13 -6 11 -20
-6z"/>
<path d="M3353 5223 c9 -2 23 -2 30 0 6 3 -1 5 -18 5 -16 0 -22 -2 -12 -5z"/>
<path d="M10853 5223 c9 -2 23 -2 30 0 6 3 -1 5 -18 5 -16 0 -22 -2 -12 -5z"/>
<path d="M4760 5210 c0 -5 5 -10 11 -10 5 0 7 5 4 10 -3 6 -8 10 -11 10 -2 0
-4 -4 -4 -10z"/>
<path d="M4713 5188 c-18 -6 -33 -15 -33 -19 0 -9 47 8 65 23 11 9 10 9 -32
-4z"/>
<path d="M12175 5170 c-3 -5 -2 -10 4 -10 5 0 13 5 16 10 3 6 2 10 -4 10 -5 0
-13 -4 -16 -10z"/>
<path d="M4640 5155 c-11 -13 -10 -14 4 -9 9 3 16 10 16 15 0 13 -6 11 -20 -6z"/>
<path d="M12132 5154 c-14 -16 -5 -18 17 -5 7 5 9 11 5 14 -5 3 -15 -1 -22 -9z"/>
<path d="M12080 5130 c-9 -6 -10 -10 -3 -10 6 0 15 5 18 10 8 12 4 12 -15 0z"/>
<path d="M12036 5115 c-11 -8 -17 -17 -14 -20 2 -3 13 4 23 15 21 23 18 25 -9
5z"/>
<path d="M4520 5100 c0 -5 7 -7 15 -4 8 4 15 8 15 10 0 2 -7 4 -15 4 -8 0 -15
-4 -15 -10z"/>
<path d="M4474 5085 c-10 -8 -14 -14 -9 -15 15 0 40 18 34 24 -3 3 -14 -1 -25
-9z"/>
<path d="M11945 5069 c-39 -24 -21 -24 25 1 19 11 28 19 20 19 -8 0 -28 -9
-45 -20z"/>
<path d="M11890 5040 c-9 -6 -10 -10 -3 -10 6 0 15 5 18 10 8 12 4 12 -15 0z"/>
<path d="M9253 2410 c-13 -5 -23 -7 -23 -3 0 3 -6 0 -13 -6 -8 -6 -30 -12 -50
-13 -20 -2 -37 -7 -37 -11 0 -5 -4 -6 -8 -3 -5 3 -25 0 -46 -6 -25 -8 -32 -14
-24 -20 10 -6 8 -8 -4 -8 -10 0 -18 -7 -18 -15 0 -9 -6 -12 -15 -9 -8 4 -15
10 -15 16 0 5 4 6 10 3 6 -3 7 1 4 9 -5 14 -8 14 -21 1 -16 -17 -9 -35 13 -35
8 0 14 -9 14 -20 0 -13 5 -18 14 -14 8 3 12 12 9 20 -3 8 1 14 10 14 8 0 17
-6 20 -12 3 -10 9 -9 23 3 43 35 144 71 253 88 166 27 348 -48 495 -203 44
-46 140 -188 156 -231 6 -15 13 -25 16 -22 3 3 -7 30 -22 59 -110 205 -247
335 -413 389 -36 12 -70 25 -76 29 -15 11 -227 11 -252 0z"/>
<path d="M8954 2306 c5 -19 0 -29 -16 -42 -20 -14 -20 -15 -3 -9 11 4 28 10
38 12 21 6 22 29 3 49 -21 21 -29 17 -22 -10z"/>
<path d="M8903 2298 c-16 -26 -12 -38 8 -28 10 6 19 17 19 25 0 18 -16 20 -27
3z"/>
<path d="M8844 2265 c-10 -8 -14 -15 -8 -15 6 0 17 7 24 15 16 19 9 19 -16 0z"/>
<path d="M8850 2230 c-9 -6 -10 -10 -3 -10 6 0 15 5 18 10 8 12 4 12 -15 0z"/>
<path d="M8800 2209 c0 -5 5 -7 10 -4 6 3 10 8 10 11 0 2 -4 4 -10 4 -5 0 -10
-5 -10 -11z"/>
<path d="M11294 2022 c-97 -93 -134 -124 -179 -152 -19 -12 -35 -23 -35 -26 0
-6 35 10 48 23 7 6 20 9 30 6 9 -3 14 -3 10 2 -11 12 31 45 50 38 15 -4 15 -3
2 6 -13 10 -8 15 13 12 4 0 7 6 7 14 0 8 4 15 10 15 5 0 24 17 42 37 18 20 40
44 48 53 69 75 47 61 -46 -28z"/>
<path d="M10569 1965 c16 -30 61 -81 61 -70 0 6 -16 28 -36 50 -19 22 -31 31
-25 20z"/>
<path d="M12655 1925 c-25 -12 -26 -14 -5 -9 28 7 60 23 45 23 -5 0 -23 -6
-40 -14z"/>
<path d="M10035 1885 c9 -22 21 -44 26 -50 6 -5 3 8 -6 30 -9 22 -21 45 -26
50 -6 6 -3 -8 6 -30z"/>
<path d="M12600 1910 c-13 -8 -12 -10 3 -10 9 0 17 5 17 10 0 12 -1 12 -20 0z"/>
<path d="M10640 1894 c0 -12 52 -55 59 -48 3 3 -2 10 -11 15 -9 5 -24 16 -33
25 -8 8 -15 12 -15 8z"/>
<path d="M12540 1880 c-8 -5 -10 -10 -5 -10 6 0 17 5 25 10 8 5 11 10 5 10 -5
0 -17 -5 -25 -10z"/>
<path d="M12490 1860 c-8 -5 -10 -10 -5 -10 6 0 17 5 25 10 8 5 11 10 5 10 -5
0 -17 -5 -25 -10z"/>
<path d="M12455 1852 c-11 -9 -112 -53 -130 -56 -5 -1 -23 -10 -40 -20 -38
-22 -17 -16 82 25 43 17 85 38 93 45 15 15 11 20 -5 6z"/>
<path d="M10738 1818 c5 -5 16 -8 23 -6 8 3 3 7 -10 11 -17 4 -21 3 -13 -5z"/>
<path d="M11020 1820 c-9 -6 -10 -10 -3 -10 6 0 15 5 18 10 8 12 4 12 -15 0z"/>
<path d="M10802 1795 c10 -10 49 -14 43 -4 -4 5 -16 9 -27 9 -12 0 -19 -2 -16
-5z"/>
<path d="M10895 1790 l-40 -7 40 -1 c22 0 49 3 60 8 l20 9 -20 -1 c-11 -1 -38
-4 -60 -8z"/>
<path d="M12175 1730 c-3 -6 1 -7 9 -4 18 7 21 14 7 14 -6 0 -13 -4 -16 -10z"/>
<path d="M12130 1715 c-14 -16 -10 -18 14 -9 9 3 16 10 16 15 0 14 -16 11 -30
-6z"/>
<path d="M12080 1690 c-9 -6 -10 -10 -3 -10 6 0 15 5 18 10 8 12 4 12 -15 0z"/>
<path d="M12036 1674 c-11 -8 -16 -14 -10 -14 13 0 39 18 34 24 -3 2 -14 -2
-24 -10z"/>
<path d="M11955 1635 c-22 -13 -36 -25 -32 -25 7 0 44 18 76 38 2 1 2 4 0 7
-3 2 -23 -7 -44 -20z"/>
</g>
</svg>
