<?xml version="1.0" standalone="no"?>
<!DOCTYPE svg PUBLIC "-//W3C//DTD SVG 20010904//EN"
 "http://www.w3.org/TR/2001/REC-SVG-20010904/DTD/svg10.dtd">
<svg version="1.0" xmlns="http://www.w3.org/2000/svg"
 width="1366.000000pt" height="768.000000pt" viewBox="0 0 1366.000000 768.000000"
 preserveAspectRatio="xMidYMid meet">

<g transform="translate(0.000000,768.000000) scale(0.100000,-0.100000)"
fill="#000000" stroke="none">
<path d="M1716 5843 c-3 -6 -13 -12 -23 -12 -37 -1 -62 -8 -79 -22 -16 -12
-17 -12 -10 1 4 8 0 6 -8 -4 -12 -15 -16 -16 -16 -5 0 8 -3 10 -8 4 -4 -5 -14
-10 -22 -10 -8 0 -16 -10 -18 -22 -4 -27 -10 -28 -34 -6 -10 9 -18 11 -18 5 0
-6 9 -16 20 -22 11 -6 20 -17 20 -25 0 -8 7 -15 16 -15 11 0 15 6 11 20 -6 22
18 29 26 8 3 -10 9 -9 23 3 10 9 62 32 114 50 88 31 104 34 215 34 118 0 121
-1 199 -38 126 -60 220 -146 311 -282 49 -75 77 -128 139 -267 14 -32 28 -58
31 -58 4 0 4 3 2 8 -5 8 -36 79 -47 107 -28 71 -118 238 -132 243 -4 2 -8 10
-8 17 0 8 -39 53 -87 102 -92 93 -166 140 -265 169 -29 9 -58 20 -63 24 -16
14 -284 7 -289 -7z"/>
<path d="M9217 5847 c-2 -6 -16 -11 -72 -21 -5 -1 -16 -5 -22 -9 -7 -5 -13 -5
-13 -1 0 4 -7 -1 -15 -12 -9 -12 -14 -14 -15 -6 0 7 -5 10 -11 6 -6 -3 -16 0
-21 7 -7 10 -8 8 -5 -8 3 -13 1 -23 -4 -23 -5 0 -9 -7 -9 -15 0 -19 -9 -19
-32 2 -10 9 -18 11 -18 5 0 -6 9 -16 20 -22 11 -6 20 -17 20 -25 0 -8 7 -15
16 -15 11 0 14 6 9 20 -7 22 20 30 28 8 3 -10 9 -9 23 3 20 16 132 61 199 78
57 16 202 13 258 -4 60 -18 152 -67 194 -103 17 -15 39 -34 50 -43 101 -89
212 -264 278 -442 10 -26 20 -46 22 -43 3 3 -44 130 -65 173 -74 152 -128 231
-217 318 -77 76 -156 123 -247 150 -32 9 -60 20 -63 25 -7 11 -284 8 -288 -3z"/>
<path d="M1500 5791 c0 -6 5 -13 10 -16 6 -3 10 1 10 9 0 9 -4 16 -10 16 -5 0
-10 -4 -10 -9z"/>
<path d="M9000 5791 c0 -6 4 -12 8 -15 5 -3 9 1 9 9 0 8 -4 15 -9 15 -4 0 -8
-4 -8 -9z"/>
<path d="M1453 5735 c1 -37 4 -40 27 -25 12 7 12 12 0 34 -19 36 -28 32 -27
-9z"/>
<path d="M8945 5761 c-3 -5 -1 -13 5 -16 6 -4 8 -15 5 -25 -5 -15 -2 -17 15
-13 23 6 25 20 6 46 -15 19 -22 21 -31 8z"/>
<path d="M1400 5735 c-7 -8 -9 -15 -5 -15 4 0 2 -7 -5 -16 -12 -13 -10 -14 13
-3 15 7 27 20 27 31 0 22 -13 23 -30 3z"/>
<path d="M8900 5735 c-7 -8 -9 -15 -5 -15 4 0 1 -8 -6 -17 -12 -14 -10 -14 14
1 15 10 27 25 27 32 0 18 -14 18 -30 -1z"/>
<path d="M1338 5704 c-16 -8 -28 -17 -28 -19 0 -11 19 -4 41 15 29 23 24 25
-13 4z"/>
<path d="M8838 5704 c-16 -8 -28 -16 -28 -18 0 -9 40 7 51 20 14 17 11 17 -23
-2z"/>
<path d="M1390 5680 c-9 -6 -10 -10 -3 -10 6 0 15 5 18 10 8 12 4 12 -15 0z"/>
<path d="M3794 5462 c-97 -93 -134 -124 -179 -152 -19 -12 -35 -28 -35 -35 0
-8 13 -2 32 16 18 16 38 27 45 24 7 -2 13 0 13 5 0 11 47 55 58 55 9 0 107
101 133 138 11 15 19 27 17 27 -2 0 -39 -35 -84 -78z"/>
<path d="M11294 5462 c-97 -93 -134 -124 -179 -152 -19 -12 -35 -27 -34 -33 0
-8 2 -8 6 1 2 6 10 12 18 12 7 0 18 7 25 15 7 9 20 13 29 10 8 -3 12 -3 9 1
-10 9 52 65 63 58 5 -3 9 2 9 10 0 9 4 16 10 16 5 0 24 17 42 37 18 20 40 44
48 53 69 75 47 61 -46 -28z"/>
<path d="M10556 5423 c20 -37 68 -90 106 -117 15 -11 24 -24 21 -29 -4 -6 -1
-7 7 -2 7 4 16 2 21 -6 6 -9 9 -10 9 -2 0 6 -15 22 -32 35 -30 20 -67 58 -128
128 l-21 25 17 -32z"/>
<path d="M3070 5409 c0 -9 45 -66 55 -70 15 -6 62 -53 59 -59 -1 -3 7 -6 18
-6 19 0 19 1 -4 19 -12 10 -47 41 -75 69 -29 28 -53 49 -53 47z"/>
<path d="M5152 5365 c-33 -15 -35 -15 -52 -15 -5 0 -10 -4 -10 -10 0 -8 97 23
109 36 9 8 -15 3 -47 -11z"/>
<path d="M12652 5365 c-33 -15 -35 -15 -52 -15 -5 0 -10 -4 -10 -10 0 -8 97
23 109 36 9 8 -15 3 -47 -11z"/>
<path d="M5015 5309 c-22 -10 -29 -16 -16 -13 37 10 88 33 71 33 -8 0 -33 -9
-55 -20z"/>
<path d="M12512 5310 c-23 -11 -46 -20 -50 -21 -10 -2 -39 -14 -94 -37 -25
-11 -48 -18 -51 -16 -2 2 -10 -2 -17 -11 -11 -13 -10 -15 6 -9 10 3 28 10 39
15 11 5 70 29 130 54 61 24 103 44 95 44 -8 0 -34 -9 -58 -19z"/>
<path d="M3510 5258 c-33 -16 -66 -22 -127 -22 -44 -1 -76 -4 -70 -8 19 -12
165 -4 179 10 6 6 19 12 28 12 8 0 24 7 34 15 27 21 9 18 -44 -7z"/>
<path d="M4873 5254 c-29 -13 -53 -21 -53 -17 0 3 -9 -2 -19 -11 -11 -10 -25
-15 -30 -11 -6 3 -11 2 -11 -4 0 -6 -18 -16 -40 -22 -22 -7 -40 -16 -40 -20 0
-4 42 10 93 30 134 56 184 80 167 79 -8 0 -39 -10 -67 -24z"/>
<path d="M3230 5264 c0 -7 52 -25 57 -20 2 2 -10 8 -26 14 -17 6 -31 9 -31 6z"/>
<path d="M10730 5264 c0 -11 83 -37 134 -41 58 -6 176 21 176 40 0 4 -17 0
-37 -8 -63 -27 -140 -29 -210 -7 -35 11 -63 18 -63 16z"/>
<path d="M12260 5210 c0 -5 5 -10 11 -10 5 0 7 5 4 10 -3 6 -8 10 -11 10 -2 0
-4 -4 -4 -10z"/>
<path d="M12230 5193 c-8 -3 -26 -10 -39 -15 -13 -5 -22 -11 -19 -13 6 -6 78
23 78 30 0 3 -1 5 -2 4 -2 0 -10 -3 -18 -6z"/>
<path d="M4637 5156 c-4 -10 -1 -13 9 -9 7 3 14 9 14 14 0 14 -17 10 -23 -5z"/>
<path d="M12132 5158 c-7 -7 -16 -13 -20 -13 -4 -1 -17 -6 -29 -13 -13 -7 -23
-10 -23 -7 0 4 -15 -4 -32 -17 -18 -13 -34 -21 -36 -19 -4 4 -122 -58 -122
-65 0 -2 12 2 28 10 33 17 205 99 212 101 31 8 50 18 50 26 0 13 -14 11 -28
-3z"/>
<path d="M4550 5118 c0 -4 -7 -8 -15 -8 -8 0 -15 -5 -15 -10 0 -6 14 -3 33 6
42 22 43 23 18 21 -11 -1 -21 -5 -21 -9z"/>
<path d="M4447 5070 c-65 -37 -72 -48 -12 -18 28 14 57 27 65 30 7 2 10 7 5
10 -6 3 -31 -6 -58 -22z"/>
<path d="M9325 2418 c-44 -4 -96 -12 -115 -18 -19 -6 -46 -12 -60 -14 -14 -3
-26 -5 -27 -7 -2 -1 -8 -2 -13 -3 -6 0 -15 -8 -20 -16 -7 -11 -10 -11 -10 -2
0 7 -5 10 -11 6 -6 -3 -16 0 -21 7 -7 10 -8 8 -5 -8 3 -13 1 -23 -4 -23 -5 0
-9 -7 -9 -16 0 -15 -2 -15 -25 0 -14 9 -25 12 -25 7 0 -6 9 -15 20 -21 11 -6
20 -17 20 -25 0 -8 7 -15 15 -15 10 0 13 9 10 30 -2 17 1 30 6 30 5 0 9 -3 9
-7 0 -5 4 -15 10 -23 8 -12 11 -12 27 1 19 17 142 66 202 80 56 14 201 11 252
-5 67 -21 138 -59 199 -107 50 -39 73 -62 131 -129 55 -64 143 -220 189 -338
7 -18 14 -31 16 -29 4 3 -34 101 -55 145 -70 146 -127 230 -216 318 -70 67
-174 133 -237 148 -15 3 -40 11 -55 18 -15 6 -43 12 -61 14 -19 1 -39 4 -45 6
-7 2 -48 1 -92 -4z"/>
<path d="M9000 2351 c0 -6 4 -12 8 -15 5 -3 9 1 9 9 0 8 -4 15 -9 15 -4 0 -8
-4 -8 -9z"/>
<path d="M8947 2323 c-4 -3 -2 -12 4 -20 9 -10 8 -18 -6 -33 -17 -19 -17 -19
14 -7 34 12 37 23 17 50 -14 19 -19 20 -29 10z"/>
<path d="M8903 2298 c-10 -18 -13 -38 -4 -38 12 0 31 23 31 37 0 17 -16 17
-27 1z"/>
<path d="M8830 2260 c-24 -18 -24 -19 -3 -14 12 4 28 12 34 20 17 20 -2 17
-31 -6z"/>
<path d="M11294 2022 c-97 -93 -134 -124 -179 -152 -19 -12 -35 -27 -34 -33 0
-8 2 -8 6 1 2 6 10 12 18 12 7 0 18 6 25 14 6 8 19 12 28 9 9 -3 14 -3 10 2
-10 10 31 47 44 39 4 -3 7 0 6 8 -2 7 3 12 10 11 6 -2 12 4 12 12 0 8 4 15 10
15 5 0 24 17 42 37 18 20 40 44 48 53 69 75 47 61 -46 -28z"/>
<path d="M10550 1992 c25 -44 72 -97 112 -126 15 -11 24 -24 21 -29 -4 -6 -1
-7 7 -2 7 4 16 2 21 -6 6 -9 9 -10 9 -2 0 6 -15 22 -32 35 -43 30 -115 106
-134 141 -8 15 -17 27 -20 27 -3 0 4 -17 16 -38z"/>
<path d="M12670 1933 c-8 -2 -22 -7 -30 -10 -19 -8 -27 -10 -40 -12 -5 0 -10
-5 -10 -11 0 -8 97 23 109 36 5 5 -10 4 -29 -3z"/>
<path d="M12512 1870 c-23 -11 -45 -19 -47 -20 -3 0 -22 -7 -43 -16 -20 -8
-65 -27 -100 -41 -35 -14 -61 -27 -59 -29 2 -2 75 25 163 61 87 35 152 64 144
64 -8 0 -34 -9 -58 -19z"/>
<path d="M10735 1821 c16 -15 115 -41 158 -41 43 0 147 30 147 42 0 4 -19 0
-42 -10 -54 -22 -166 -21 -228 2 -25 9 -40 13 -35 7z"/>
<path d="M12230 1753 c-8 -3 -26 -10 -39 -15 -13 -5 -22 -11 -19 -13 6 -6 78
23 78 30 0 3 -1 5 -2 4 -2 0 -10 -3 -18 -6z"/>
<path d="M12132 1718 c-7 -7 -16 -13 -20 -13 -4 -1 -17 -6 -29 -13 -13 -7 -23
-10 -23 -7 0 3 -11 -2 -25 -11 -39 -25 -24 -27 26 -2 24 12 46 22 49 23 24 5
50 18 50 26 0 13 -14 11 -28 -3z"/>
<path d="M11955 1635 c-22 -14 -37 -25 -33 -25 15 0 78 34 78 42 0 11 1 11
-45 -17z"/>
<path d="M11890 1600 c-9 -6 -10 -10 -3 -10 6 0 15 5 18 10 8 12 4 12 -15 0z"/>
</g>
</svg>
